<svg width="1440" height="387" viewBox="0 0 1440 387" fill="none" xmlns="http://www.w3.org/2000/svg">
<rect width="1440" height="387" fill="#171836"/>
<path d="M200.852 89.0193C200.852 90.6707 198.306 87.368 196.609 87.368C194.912 87.368 191.519 90.6707 191.519 89.0193C194.912 85.7167 194.948 79.1113 196.27 79.1113C197.592 79.1113 198.306 85.7167 200.852 89.0193Z" fill="#F5443B"/>
<path d="M112.451 82.2427C112.451 83.4124 112.177 84.4204 111.629 85.2667C111.107 86.088 110.236 86.8471 109.016 87.544C108.195 88.0418 107.236 88.4151 106.141 88.664C105.046 88.9129 103.939 89.0373 102.819 89.0373C101.674 89.0373 100.255 88.664 98.5627 87.9173C97.3431 87.32 96.3724 86.6107 95.6507 85.7893C94.9538 84.968 94.6053 84.072 94.6053 83.1013C94.6053 82.4293 94.7547 81.944 95.0533 81.6453C95.352 81.3218 95.8373 81.16 96.5093 81.16C96.8578 81.16 97.2187 81.3093 97.592 81.608C97.9653 81.8818 98.1893 82.1556 98.264 82.4293C98.6124 83.4498 99.2222 84.2338 100.093 84.7813C100.964 85.304 102.047 85.5653 103.341 85.5653C104.835 85.5653 106.079 85.2916 107.075 84.744C108.095 84.1964 108.605 83.4622 108.605 82.5413C108.605 81.6453 108.058 80.8489 106.963 80.152C105.868 79.4551 104.748 78.9698 103.603 78.696C101.96 78.248 100.504 77.7129 99.2347 77.0907C97.9156 76.4436 96.9324 75.6471 96.2853 74.7013C95.6382 73.7556 95.3147 72.76 95.3147 71.7147C95.3147 70.744 95.6507 69.7609 96.3227 68.7653C96.9947 67.7449 97.7911 67.0107 98.712 66.5627C99.2098 66.3138 100.056 66.0524 101.251 65.7787C102.47 65.48 103.354 65.3307 103.901 65.3307C104.623 65.3307 105.42 65.4178 106.291 65.592C107.162 65.7662 107.871 66.0151 108.419 66.3387C109.514 66.9609 110.323 67.5209 110.845 68.0187C111.368 68.5164 111.629 69.1387 111.629 69.8853C111.629 70.3333 111.455 70.7316 111.107 71.08C110.783 71.4284 110.211 71.6027 109.389 71.6027C109.19 71.6027 108.991 71.5156 108.792 71.3413C108.593 71.1671 108.344 70.9058 108.045 70.5573C107.647 70.0347 107.261 69.6862 106.888 69.512C106.515 69.3876 105.967 69.2507 105.245 69.1013C104.548 68.952 103.926 68.8773 103.379 68.8773C102.781 68.8773 102.159 69.0018 101.512 69.2507C100.865 69.4996 100.317 69.8604 99.8693 70.3333C99.4462 70.7813 99.2347 71.304 99.2347 71.9013C99.2347 72.3991 99.4587 72.8347 99.9067 73.208C100.38 73.5564 100.94 73.8427 101.587 74.0667C102.333 74.3653 103.142 74.6267 104.013 74.8507C105.158 75.1991 106.092 75.5227 106.813 75.8213C107.56 76.0951 108.282 76.4436 108.979 76.8667C110.198 77.5884 111.082 78.3351 111.629 79.1067C112.177 79.8533 112.451 80.8987 112.451 82.2427ZM117.846 65.032C118.717 65.1067 119.476 65.3431 120.124 65.7413C120.771 66.1147 121.094 66.6871 121.094 67.4587C121.094 68.0311 120.82 68.4916 120.273 68.84C119.75 69.1636 119.116 69.3253 118.369 69.3253C117.647 69.3253 117.149 69.1387 116.876 68.7653C116.602 68.392 116.465 68.0062 116.465 67.608C116.465 66.8613 116.54 66.2391 116.689 65.7413C116.863 65.2436 117.249 65.0071 117.846 65.032ZM120.833 81.5707V82.6533C120.833 83.624 120.858 84.5449 120.908 85.416C120.982 86.2622 121.069 87.1209 121.169 87.992C121.144 88.2409 120.957 88.5022 120.609 88.776C120.26 89.0249 119.949 89.1493 119.676 89.1493C119.203 89.1493 118.717 89.0622 118.22 88.888C117.747 88.6889 117.46 88.4524 117.361 88.1787C117.212 87.3822 117.137 86.6729 117.137 86.0507C117.137 84.0098 117.075 81.72 116.95 79.1813C116.851 76.9413 116.801 75.3733 116.801 74.4773C116.801 74.0293 117.025 73.6436 117.473 73.32C117.921 72.9964 118.394 72.8347 118.892 72.8347C119.613 72.8347 120.111 72.9964 120.385 73.32C120.684 73.6436 120.833 74.1538 120.833 74.8507V81.5707ZM142.518 86.1253C142.643 86.1751 142.842 86.2373 143.116 86.312C143.389 86.3867 143.589 86.4613 143.713 86.536C143.837 86.6107 143.9 86.7227 143.9 86.872C143.925 87.4693 143.701 87.9671 143.228 88.3653C142.78 88.7387 142.245 88.9253 141.622 88.9253C140.652 88.9253 139.893 88.664 139.345 88.1413C138.797 87.6187 138.399 86.8222 138.15 85.752C138.051 85.3289 138.001 84.744 138.001 83.9973C138.001 83.5742 138.026 82.8898 138.076 81.944C138.125 80.9484 138.15 80.152 138.15 79.5547C138.15 78.6836 137.901 77.9244 137.404 77.2773C136.931 76.6053 136.259 76.2693 135.388 76.2693C134.865 76.2693 134.317 76.4311 133.745 76.7547C133.173 77.0533 132.774 77.4267 132.55 77.8747C132.177 78.5964 131.916 79.3804 131.766 80.2267C131.493 81.72 131.356 83.2756 131.356 84.8933C131.356 85.6649 131.368 86.2622 131.393 86.6853C131.393 86.7849 131.393 86.984 131.393 87.2827C131.418 87.5564 131.393 87.8178 131.318 88.0667C131.269 88.2907 131.169 88.5022 131.02 88.7013C130.895 88.8258 130.696 88.9253 130.422 89C130.173 89.0996 129.937 89.1493 129.713 89.1493C129.365 89.1493 128.929 89 128.406 88.7013C127.884 88.4027 127.585 88.0667 127.51 87.6933L127.473 87.0587C127.473 86.8347 127.498 86.5733 127.548 86.2747C127.846 84.5324 127.996 83.0142 127.996 81.72C127.996 81.1476 127.983 80.6996 127.958 80.376L127.921 78.6213C127.921 78.024 127.772 77.4516 127.473 76.904C127.174 76.3316 126.826 76.0453 126.428 76.0453C126.303 76.0453 126.129 76.0951 125.905 76.1947C125.681 76.2693 125.494 76.3067 125.345 76.3067C125.096 76.3067 124.822 76.1822 124.524 75.9333C124.25 75.6844 124.113 75.4231 124.113 75.1493C124.113 74.6267 124.287 74.2036 124.636 73.88C125.009 73.5813 125.37 73.3449 125.718 73.1707C126.092 72.9964 126.515 72.9093 126.988 72.9093C127.386 72.9093 127.709 72.9467 127.958 73.0213C128.207 73.096 128.543 73.2578 128.966 73.5067C129.19 73.6311 129.452 73.9049 129.75 74.328C130.049 74.7511 130.298 75.3484 130.497 76.12C131.144 74.9253 131.941 74.0916 132.886 73.6187C133.857 73.1209 135.089 72.872 136.582 72.872C137.155 72.872 137.765 73.0587 138.412 73.432C139.084 73.8053 139.656 74.2409 140.129 74.7387C140.577 75.2862 140.95 75.9707 141.249 76.792C141.548 77.5884 141.697 78.3102 141.697 78.9573C141.697 79.3307 141.672 79.9404 141.622 80.7867C141.548 81.4587 141.51 82.168 141.51 82.9147C141.51 84.6569 141.846 85.7271 142.518 86.1253ZM160.79 89.1493C159.944 89.1493 159.297 89.0249 158.849 88.776C158.401 88.5022 157.916 88.0044 157.393 87.2827C156.746 87.8551 155.775 88.3156 154.481 88.664C153.212 89.0124 152.117 89.1867 151.196 89.1867C149.677 89.1867 148.445 88.776 147.5 87.9547C146.579 87.1084 146.118 85.8764 146.118 84.2587C146.118 83.5618 146.305 82.9271 146.678 82.3547C147.077 81.7573 147.587 81.2347 148.209 80.7867C148.906 80.3138 149.727 79.9404 150.673 79.6667C151.644 79.3929 152.527 79.256 153.324 79.256C154.668 79.256 155.862 79.3804 156.908 79.6293V79.592C156.908 78.248 156.572 77.3271 155.9 76.8293C155.253 76.3067 154.207 76.0453 152.764 76.0453C151.843 76.0453 151.046 76.456 150.374 77.2773C150.125 77.6009 149.603 77.7627 148.806 77.7627C148.408 77.7627 148.109 77.6009 147.91 77.2773C147.736 76.9289 147.649 76.5804 147.649 76.232C147.649 75.5102 147.948 74.888 148.545 74.3653C149.167 73.8427 149.914 73.4569 150.785 73.208C151.656 72.9342 152.465 72.7973 153.212 72.7973C153.933 72.7973 154.792 72.9467 155.788 73.2453C156.783 73.544 157.592 73.9422 158.214 74.44C158.961 75.0871 159.533 75.8462 159.932 76.7173C160.355 77.5636 160.566 78.4969 160.566 79.5173C160.566 79.8409 160.541 80.3262 160.492 80.9733C160.442 81.72 160.417 82.3298 160.417 82.8027C160.417 83.0267 160.392 83.3129 160.342 83.6613C160.293 84.1093 160.268 84.4827 160.268 84.7813C160.268 85.1049 160.367 85.416 160.566 85.7147C160.765 86.0133 161.039 86.2622 161.388 86.4613C161.711 86.6356 161.923 86.8222 162.022 87.0213C162.122 87.2204 162.172 87.4444 162.172 87.6933C162.172 87.9422 162.01 88.2533 161.686 88.6267C161.388 88.9751 161.089 89.1493 160.79 89.1493ZM153.324 82.0187C152.353 82.0187 151.494 82.2053 150.748 82.5787C150.001 82.952 149.628 83.6116 149.628 84.5573C149.628 85.0302 149.789 85.4284 150.113 85.752C150.461 86.0756 150.835 86.2373 151.233 86.2373C152.303 86.2373 153.199 86.1253 153.921 85.9013C154.643 85.6773 155.514 85.2667 156.534 84.6693C156.659 84.2711 156.733 83.7111 156.758 82.9893C156.758 82.7156 156.771 82.504 156.796 82.3547C155.452 82.1307 154.294 82.0187 153.324 82.0187ZM164.568 76.4187C164.369 76.4187 164.195 76.344 164.045 76.1947C163.896 76.0204 163.821 75.8213 163.821 75.5973C163.821 74.8756 164.058 74.328 164.531 73.9547C165.004 73.5564 165.588 73.3573 166.285 73.3573C167.256 73.3573 168.09 73.6187 168.787 74.1413C169.508 74.6391 169.869 75.3609 169.869 76.3067C169.869 76.5556 169.82 77.5013 169.72 79.144C169.62 81.0356 169.571 82.2924 169.571 82.9147C169.571 83.7858 169.732 84.4951 170.056 85.0427C170.404 85.5653 170.94 85.8267 171.661 85.8267C173.055 85.8267 174.125 85.0551 174.872 83.512C175.644 81.944 176.154 80.0276 176.403 77.7627C176.502 76.7671 176.652 75.7218 176.851 74.6267C176.95 74.0293 177.087 73.5938 177.261 73.32C177.436 73.0462 177.772 72.9093 178.269 72.9093C178.593 72.9093 178.966 72.984 179.389 73.1333C179.837 73.2827 180.124 73.4818 180.248 73.7307C180.397 74.104 180.472 74.5147 180.472 74.9627C180.472 75.5849 180.385 76.3938 180.211 77.3893C180.012 78.3849 179.875 79.4676 179.8 80.6373C179.75 81.6827 179.912 82.7778 180.285 83.9227C180.659 85.0676 181.194 85.8142 181.891 86.1627C182.687 86.5609 183.085 86.9218 183.085 87.2453C183.085 87.768 182.899 88.1787 182.525 88.4773C182.152 88.776 181.791 88.9253 181.443 88.9253C180.522 88.9253 179.688 88.5893 178.941 87.9173C178.22 87.2453 177.697 86.4116 177.373 85.416C176.851 86.2124 176.34 86.872 175.843 87.3947C175.37 87.8924 174.76 88.3156 174.013 88.664C173.267 88.9876 172.346 89.1493 171.251 89.1493C169.956 89.1493 168.774 88.6889 167.704 87.768C166.659 86.8471 166.136 85.2667 166.136 83.0267C166.136 82.4044 166.148 81.7449 166.173 81.048C166.223 80.3511 166.248 79.8533 166.248 79.5547C166.323 78.6587 166.36 77.8373 166.36 77.0907C166.36 76.8667 166.273 76.68 166.099 76.5307C165.949 76.3813 165.775 76.3067 165.576 76.3067C165.427 76.3067 165.252 76.3316 165.053 76.3813C164.879 76.4062 164.717 76.4187 164.568 76.4187ZM202.971 80.1147C203.121 79.5671 203.283 78.8204 203.457 77.8747C203.706 76.7547 203.905 75.9084 204.054 75.336C204.203 74.7636 204.403 74.2782 204.651 73.88C204.925 73.432 205.162 73.1333 205.361 72.984C205.585 72.8347 205.821 72.76 206.07 72.76C207.364 72.76 208.011 73.2578 208.011 74.2533C208.011 74.7511 207.812 75.6844 207.414 77.0533C206.095 81.0356 205.149 84.1218 204.577 86.312C204.328 87.2329 203.955 87.9422 203.457 88.44C202.959 88.9129 202.287 89.1493 201.441 89.1493C201.018 89.1493 200.582 88.9502 200.134 88.552C199.711 88.1289 199.363 87.6187 199.089 87.0213L198.678 86.0133C197.981 84.2462 197.459 82.8898 197.11 81.944C196.787 80.9733 196.575 80.1022 196.475 79.3307L196.139 80.5253C195.542 82.6658 194.92 84.6569 194.273 86.4987C193.949 87.4444 193.551 88.1289 193.078 88.552C192.605 88.9502 191.995 89.1493 191.249 89.1493C190.801 89.1493 190.403 89.0498 190.054 88.8507C189.731 88.6516 189.419 88.3156 189.121 87.8427C188.723 87.1956 188.337 86.3244 187.963 85.2293C187.615 84.1342 187.105 82.4293 186.433 80.1147C186.109 79.1191 185.811 78.0738 185.537 76.9787C185.263 75.8587 185.126 75.0747 185.126 74.6267C185.126 74.104 185.263 73.6933 185.537 73.3947C185.811 73.096 186.209 72.9467 186.731 72.9467C187.403 72.9467 187.876 73.0836 188.15 73.3573C188.424 73.6062 188.673 73.992 188.897 74.5147C189.021 75.4107 189.295 76.68 189.718 78.3227L190.539 81.832C190.589 82.1058 190.739 82.6782 190.987 83.5493L191.286 84.632C191.834 83.4622 192.294 82.3422 192.667 81.272C193.041 80.2018 193.451 78.8827 193.899 77.3147C193.924 77.2151 194.173 76.3564 194.646 74.7387C194.97 74.216 195.256 73.8302 195.505 73.5813C195.754 73.3076 196.003 73.1707 196.251 73.1707C196.749 73.1707 197.172 73.3324 197.521 73.656C197.894 73.9547 198.168 74.328 198.342 74.776C198.641 75.7467 198.902 76.6302 199.126 77.4267C199.226 77.7502 199.45 78.5342 199.798 79.7787C200.171 80.9982 200.507 82.0311 200.806 82.8773C201.105 83.7236 201.354 84.3209 201.553 84.6693L202.971 80.1147Z" fill="url(#paint0_linear_101_271)"/>
<path d="M122.037 67.7037C122.037 69.4219 120.644 70.2963 118.926 70.2963C117.208 70.2963 116.333 69.4219 116.333 67.7037C116.333 65.9855 117.208 65.1111 118.926 65.1111C120.644 65.1111 122.037 65.9855 122.037 67.7037Z" fill="#F5443B"/>
<path opacity="0.6" d="M94.8864 131L96.0568 127.705H100.761L101.932 131H103.409L99.1364 119.364H97.6818L93.4091 131H94.8864ZM96.5 126.455L98.3636 121.205H98.4545L100.318 126.455H96.5ZM106.381 125.75C106.381 124.227 107.324 123.364 108.608 123.364C109.852 123.364 110.608 124.176 110.608 125.545V131H111.949V125.455C111.949 123.227 110.761 122.159 108.994 122.159C107.676 122.159 106.858 122.75 106.449 123.636H106.335V122.273H105.04V131H106.381V125.75ZM114.95 134.273C116.161 134.273 117.013 133.631 117.518 132.273L121.234 122.295L119.768 122.273L117.359 129.227H117.268L114.859 122.273H113.405L116.632 131.045L116.382 131.727C115.893 133.057 115.291 133.182 114.314 132.932L113.973 134.114C114.109 134.182 114.496 134.273 114.95 134.273ZM131.395 122.273H129.44V121.386C129.44 120.523 129.804 120.068 130.69 120.068C131.077 120.068 131.304 120.159 131.44 120.205L131.827 119.045C131.622 118.955 131.213 118.818 130.554 118.818C129.304 118.818 128.099 119.568 128.099 121.068V122.273H126.69V123.409H128.099V131H129.44V123.409H131.395V122.273ZM136.574 131.182C138.347 131.182 139.642 130.295 140.051 128.977L138.756 128.614C138.415 129.523 137.625 129.977 136.574 129.977C135 129.977 133.915 128.96 133.852 127.091H140.188V126.523C140.188 123.273 138.256 122.159 136.438 122.159C134.074 122.159 132.506 124.023 132.506 126.705C132.506 129.386 134.051 131.182 136.574 131.182ZM133.852 125.932C133.943 124.574 134.903 123.364 136.438 123.364C137.892 123.364 138.824 124.455 138.824 125.932H133.852ZM145.886 131.182C147.659 131.182 148.955 130.295 149.364 128.977L148.068 128.614C147.727 129.523 146.938 129.977 145.886 129.977C144.312 129.977 143.227 128.96 143.165 127.091H149.5V126.523C149.5 123.273 147.568 122.159 145.75 122.159C143.386 122.159 141.818 124.023 141.818 126.705C141.818 129.386 143.364 131.182 145.886 131.182ZM143.165 125.932C143.256 124.574 144.216 123.364 145.75 123.364C147.205 123.364 148.136 124.455 148.136 125.932H143.165ZM154.835 131.182C156.517 131.182 157.085 130.136 157.381 129.659H157.54V131H158.835V119.364H157.494V123.659H157.381C157.085 123.205 156.562 122.159 154.858 122.159C152.653 122.159 151.131 123.909 151.131 126.659C151.131 129.432 152.653 131.182 154.835 131.182ZM155.017 129.977C153.335 129.977 152.472 128.5 152.472 126.636C152.472 124.795 153.312 123.364 155.017 123.364C156.653 123.364 157.517 124.682 157.517 126.636C157.517 128.614 156.631 129.977 155.017 129.977ZM161.659 131H162.955V129.659H163.114C163.409 130.136 163.977 131.182 165.659 131.182C167.841 131.182 169.364 129.432 169.364 126.659C169.364 123.909 167.841 122.159 165.636 122.159C163.932 122.159 163.409 123.205 163.114 123.659H163V119.364H161.659V131ZM162.977 126.636C162.977 124.682 163.841 123.364 165.477 123.364C167.182 123.364 168.023 124.795 168.023 126.636C168.023 128.5 167.159 129.977 165.477 129.977C163.864 129.977 162.977 128.614 162.977 126.636ZM173.983 131.205C175.506 131.205 176.301 130.386 176.574 129.818H176.642V131H177.983V125.25C177.983 122.477 175.869 122.159 174.756 122.159C173.438 122.159 171.938 122.614 171.256 124.205L172.528 124.659C172.824 124.023 173.523 123.341 174.801 123.341C176.034 123.341 176.642 123.994 176.642 125.114V125.159C176.642 125.807 175.983 125.75 174.392 125.955C172.773 126.165 171.006 126.523 171.006 128.523C171.006 130.227 172.324 131.205 173.983 131.205ZM174.188 130C173.119 130 172.347 129.523 172.347 128.591C172.347 127.568 173.278 127.25 174.324 127.114C174.892 127.045 176.415 126.886 176.642 126.614V127.841C176.642 128.932 175.778 130 174.188 130ZM183.976 131.182C185.908 131.182 187.18 130 187.408 128.455H186.067C185.817 129.409 185.021 129.977 183.976 129.977C182.385 129.977 181.362 128.659 181.362 126.636C181.362 124.659 182.408 123.364 183.976 123.364C185.158 123.364 185.862 124.091 186.067 124.886H187.408C187.18 123.25 185.794 122.159 183.953 122.159C181.589 122.159 180.021 124.023 180.021 126.682C180.021 129.295 181.521 131.182 183.976 131.182ZM189.368 131H190.709V127.733L191.646 126.864L194.913 131H196.618L192.658 126L196.345 122.273H194.686L190.868 126.159H190.709V119.364H189.368V131ZM206.116 131.182C208.48 131.182 210.071 129.386 210.071 126.682C210.071 123.955 208.48 122.159 206.116 122.159C203.753 122.159 202.162 123.955 202.162 126.682C202.162 129.386 203.753 131.182 206.116 131.182ZM206.116 129.977C204.321 129.977 203.503 128.432 203.503 126.682C203.503 124.932 204.321 123.364 206.116 123.364C207.912 123.364 208.73 124.932 208.73 126.682C208.73 128.432 207.912 129.977 206.116 129.977ZM212.118 131H213.459V125.477C213.459 124.295 214.391 123.432 215.663 123.432C216.021 123.432 216.391 123.5 216.482 123.523V122.159C216.328 122.148 215.976 122.136 215.777 122.136C214.732 122.136 213.822 122.727 213.504 123.591H213.413V122.273H212.118V131ZM229.866 134.273V122.273H228.571V123.659H228.412C228.116 123.205 227.594 122.159 225.889 122.159C223.685 122.159 222.162 123.909 222.162 126.659C222.162 129.432 223.685 131.182 225.866 131.182C227.548 131.182 228.116 130.136 228.412 129.659H228.526V134.273H229.866ZM228.548 126.636C228.548 128.614 227.662 129.977 226.048 129.977C224.366 129.977 223.503 128.5 223.503 126.636C223.503 124.795 224.344 123.364 226.048 123.364C227.685 123.364 228.548 124.682 228.548 126.636ZM237.821 127.432C237.821 129.068 236.571 129.818 235.571 129.818C234.457 129.818 233.662 129 233.662 127.727V122.273H232.321V127.818C232.321 130.045 233.503 131.114 235.139 131.114C236.457 131.114 237.321 130.409 237.73 129.523H237.821V131H239.162V122.273H237.821V127.432ZM245.277 131.182C247.05 131.182 248.345 130.295 248.754 128.977L247.459 128.614C247.118 129.523 246.328 129.977 245.277 129.977C243.703 129.977 242.618 128.96 242.555 127.091H248.891V126.523C248.891 123.273 246.959 122.159 245.141 122.159C242.777 122.159 241.209 124.023 241.209 126.705C241.209 129.386 242.754 131.182 245.277 131.182ZM242.555 125.932C242.646 124.574 243.607 123.364 245.141 123.364C246.595 123.364 247.527 124.455 247.527 125.932H242.555ZM257.112 124.227C256.692 122.989 255.749 122.159 254.021 122.159C252.18 122.159 250.817 123.205 250.817 124.682C250.817 125.886 251.533 126.693 253.135 127.068L254.589 127.409C255.47 127.614 255.885 128.034 255.885 128.636C255.885 129.386 255.089 130 253.839 130C252.743 130 252.055 129.528 251.817 128.591L250.544 128.909C250.857 130.392 252.078 131.182 253.862 131.182C255.891 131.182 257.271 130.074 257.271 128.568C257.271 127.352 256.51 126.585 254.953 126.205L253.658 125.886C252.624 125.631 252.158 125.284 252.158 124.614C252.158 123.864 252.953 123.318 254.021 123.318C255.192 123.318 255.675 123.966 255.908 124.568L257.112 124.227ZM263.085 122.273H261.222V120.182H259.881V122.273H258.562V123.409H259.881V128.864C259.881 130.386 261.108 131.114 262.244 131.114C262.744 131.114 263.062 131.023 263.244 130.955L262.972 129.75C262.858 129.773 262.676 129.818 262.381 129.818C261.79 129.818 261.222 129.636 261.222 128.5V123.409H263.085V122.273ZM265.102 131H266.443V122.273H265.102V131ZM265.784 120.818C266.307 120.818 266.739 120.409 266.739 119.909C266.739 119.409 266.307 119 265.784 119C265.261 119 264.83 119.409 264.83 119.909C264.83 120.409 265.261 120.818 265.784 120.818ZM272.445 131.182C274.808 131.182 276.399 129.386 276.399 126.682C276.399 123.955 274.808 122.159 272.445 122.159C270.081 122.159 268.49 123.955 268.49 126.682C268.49 129.386 270.081 131.182 272.445 131.182ZM272.445 129.977C270.649 129.977 269.831 128.432 269.831 126.682C269.831 124.932 270.649 123.364 272.445 123.364C274.24 123.364 275.058 124.932 275.058 126.682C275.058 128.432 274.24 129.977 272.445 129.977ZM279.787 125.75C279.787 124.227 280.73 123.364 282.014 123.364C283.259 123.364 284.014 124.176 284.014 125.545V131H285.355V125.455C285.355 123.227 284.168 122.159 282.401 122.159C281.082 122.159 280.264 122.75 279.855 123.636H279.741V122.273H278.446V131H279.787V125.75ZM293.987 124.227C293.567 122.989 292.624 122.159 290.896 122.159C289.055 122.159 287.692 123.205 287.692 124.682C287.692 125.886 288.408 126.693 290.01 127.068L291.464 127.409C292.345 127.614 292.76 128.034 292.76 128.636C292.76 129.386 291.964 130 290.714 130C289.618 130 288.93 129.528 288.692 128.591L287.419 128.909C287.732 130.392 288.953 131.182 290.737 131.182C292.766 131.182 294.146 130.074 294.146 128.568C294.146 127.352 293.385 126.585 291.828 126.205L290.533 125.886C289.499 125.631 289.033 125.284 289.033 124.614C289.033 123.864 289.828 123.318 290.896 123.318C292.067 123.318 292.55 123.966 292.783 124.568L293.987 124.227ZM297.915 127.727H299.278V127.659C299.301 126.25 299.665 125.636 300.665 125.011C301.665 124.403 302.256 123.528 302.256 122.273C302.256 120.5 300.96 119.205 298.96 119.205C297.119 119.205 295.659 120.341 295.574 122.273H297.006C297.091 120.932 298.028 120.386 298.96 120.386C300.028 120.386 300.892 121.091 300.892 122.205C300.892 123.108 300.375 123.756 299.71 124.159C298.597 124.835 297.932 125.494 297.915 127.659V127.727ZM298.642 131.091C299.205 131.091 299.665 130.631 299.665 130.068C299.665 129.506 299.205 129.045 298.642 129.045C298.08 129.045 297.619 129.506 297.619 130.068C297.619 130.631 298.08 131.091 298.642 131.091ZM103.773 150C103.341 147.614 101.432 146.205 99.0909 146.205C96.1136 146.205 93.9545 148.5 93.9545 152.182C93.9545 155.864 96.1136 158.159 99.0909 158.159C101.432 158.159 103.341 156.75 103.773 154.364H102.364C102.023 155.977 100.636 156.841 99.0909 156.841C96.9773 156.841 95.3182 155.205 95.3182 152.182C95.3182 149.159 96.9773 147.523 99.0909 147.523C100.636 147.523 102.023 148.386 102.364 150H103.773ZM109.413 158.182C111.777 158.182 113.368 156.386 113.368 153.682C113.368 150.955 111.777 149.159 109.413 149.159C107.05 149.159 105.459 150.955 105.459 153.682C105.459 156.386 107.05 158.182 109.413 158.182ZM109.413 156.977C107.618 156.977 106.8 155.432 106.8 153.682C106.8 151.932 107.618 150.364 109.413 150.364C111.209 150.364 112.027 151.932 112.027 153.682C112.027 155.432 111.209 156.977 109.413 156.977ZM116.756 152.75C116.756 151.227 117.699 150.364 118.983 150.364C120.227 150.364 120.983 151.176 120.983 152.545V158H122.324V152.455C122.324 150.227 121.136 149.159 119.369 149.159C118.051 149.159 117.233 149.75 116.824 150.636H116.71V149.273H115.415V158H116.756V152.75ZM128.57 149.273H126.706V147.182H125.365V149.273H124.047V150.409H125.365V155.864C125.365 157.386 126.592 158.114 127.729 158.114C128.229 158.114 128.547 158.023 128.729 157.955L128.456 156.75C128.342 156.773 128.161 156.818 127.865 156.818C127.274 156.818 126.706 156.636 126.706 155.5V150.409H128.57V149.273ZM133.155 158.205C134.678 158.205 135.473 157.386 135.746 156.818H135.814V158H137.155V152.25C137.155 149.477 135.041 149.159 133.928 149.159C132.609 149.159 131.109 149.614 130.428 151.205L131.7 151.659C131.996 151.023 132.695 150.341 133.973 150.341C135.206 150.341 135.814 150.994 135.814 152.114V152.159C135.814 152.807 135.155 152.75 133.564 152.955C131.945 153.165 130.178 153.523 130.178 155.523C130.178 157.227 131.496 158.205 133.155 158.205ZM133.359 157C132.291 157 131.518 156.523 131.518 155.591C131.518 154.568 132.45 154.25 133.496 154.114C134.064 154.045 135.587 153.886 135.814 153.614V154.841C135.814 155.932 134.95 157 133.359 157ZM143.148 158.182C145.08 158.182 146.352 157 146.58 155.455H145.239C144.989 156.409 144.193 156.977 143.148 156.977C141.557 156.977 140.534 155.659 140.534 153.636C140.534 151.659 141.58 150.364 143.148 150.364C144.33 150.364 145.034 151.091 145.239 151.886H146.58C146.352 150.25 144.966 149.159 143.125 149.159C140.761 149.159 139.193 151.023 139.193 153.682C139.193 156.295 140.693 158.182 143.148 158.182ZM152.335 149.273H150.472V147.182H149.131V149.273H147.812V150.409H149.131V155.864C149.131 157.386 150.358 158.114 151.494 158.114C151.994 158.114 152.312 158.023 152.494 157.955L152.222 156.75C152.108 156.773 151.926 156.818 151.631 156.818C151.04 156.818 150.472 156.636 150.472 155.5V150.409H152.335V149.273ZM164.352 154.432C164.352 156.068 163.102 156.818 162.102 156.818C160.989 156.818 160.193 156 160.193 154.727V149.273H158.852V154.818C158.852 157.045 160.034 158.114 161.67 158.114C162.989 158.114 163.852 157.409 164.261 156.523H164.352V158H165.693V149.273H164.352V154.432ZM174.331 151.227C173.911 149.989 172.967 149.159 171.24 149.159C169.399 149.159 168.036 150.205 168.036 151.682C168.036 152.886 168.751 153.693 170.354 154.068L171.808 154.409C172.689 154.614 173.104 155.034 173.104 155.636C173.104 156.386 172.308 157 171.058 157C169.962 157 169.274 156.528 169.036 155.591L167.763 155.909C168.075 157.392 169.297 158.182 171.081 158.182C173.109 158.182 174.49 157.074 174.49 155.568C174.49 154.352 173.729 153.585 172.172 153.205L170.876 152.886C169.842 152.631 169.376 152.284 169.376 151.614C169.376 150.864 170.172 150.318 171.24 150.318C172.411 150.318 172.893 150.966 173.126 151.568L174.331 151.227ZM184.554 158.182C186.918 158.182 188.509 156.386 188.509 153.682C188.509 150.955 186.918 149.159 184.554 149.159C182.19 149.159 180.599 150.955 180.599 153.682C180.599 156.386 182.19 158.182 184.554 158.182ZM184.554 156.977C182.759 156.977 181.94 155.432 181.94 153.682C181.94 151.932 182.759 150.364 184.554 150.364C186.349 150.364 187.168 151.932 187.168 153.682C187.168 155.432 186.349 156.977 184.554 156.977ZM191.896 152.75C191.896 151.227 192.839 150.364 194.124 150.364C195.368 150.364 196.124 151.176 196.124 152.545V158H197.464V152.455C197.464 150.227 196.277 149.159 194.51 149.159C193.192 149.159 192.374 149.75 191.964 150.636H191.851V149.273H190.555V158H191.896V152.75ZM207.96 158.182C210.324 158.182 211.915 156.386 211.915 153.682C211.915 150.955 210.324 149.159 207.96 149.159C205.597 149.159 204.006 150.955 204.006 153.682C204.006 156.386 205.597 158.182 207.96 158.182ZM207.96 156.977C206.165 156.977 205.347 155.432 205.347 153.682C205.347 151.932 206.165 150.364 207.96 150.364C209.756 150.364 210.574 151.932 210.574 153.682C210.574 155.432 209.756 156.977 207.96 156.977ZM219.462 154.432C219.462 156.068 218.212 156.818 217.212 156.818C216.098 156.818 215.303 156 215.303 154.727V149.273H213.962V154.818C213.962 157.045 215.143 158.114 216.78 158.114C218.098 158.114 218.962 157.409 219.371 156.523H219.462V158H220.803V149.273H219.462V154.432ZM223.259 158H224.599V152.477C224.599 151.295 225.531 150.432 226.804 150.432C227.162 150.432 227.531 150.5 227.622 150.523V149.159C227.469 149.148 227.116 149.136 226.918 149.136C225.872 149.136 224.963 149.727 224.645 150.591H224.554V149.273H223.259V158ZM239.893 151.227C239.473 149.989 238.53 149.159 236.803 149.159C234.962 149.159 233.598 150.205 233.598 151.682C233.598 152.886 234.314 153.693 235.916 154.068L237.371 154.409C238.251 154.614 238.666 155.034 238.666 155.636C238.666 156.386 237.871 157 236.621 157C235.524 157 234.837 156.528 234.598 155.591L233.325 155.909C233.638 157.392 234.859 158.182 236.643 158.182C238.672 158.182 240.053 157.074 240.053 155.568C240.053 154.352 239.291 153.585 237.734 153.205L236.439 152.886C235.405 152.631 234.939 152.284 234.939 151.614C234.939 150.864 235.734 150.318 236.803 150.318C237.973 150.318 238.456 150.966 238.689 151.568L239.893 151.227ZM245.616 158.182C247.98 158.182 249.571 156.386 249.571 153.682C249.571 150.955 247.98 149.159 245.616 149.159C243.253 149.159 241.662 150.955 241.662 153.682C241.662 156.386 243.253 158.182 245.616 158.182ZM245.616 156.977C243.821 156.977 243.003 155.432 243.003 153.682C243.003 151.932 243.821 150.364 245.616 150.364C247.412 150.364 248.23 151.932 248.23 153.682C248.23 155.432 247.412 156.977 245.616 156.977ZM255.163 158.182C257.095 158.182 258.368 157 258.595 155.455H257.254C257.004 156.409 256.209 156.977 255.163 156.977C253.572 156.977 252.55 155.659 252.55 153.636C252.55 151.659 253.595 150.364 255.163 150.364C256.345 150.364 257.05 151.091 257.254 151.886H258.595C258.368 150.25 256.982 149.159 255.141 149.159C252.777 149.159 251.209 151.023 251.209 153.682C251.209 156.295 252.709 158.182 255.163 158.182ZM260.555 158H261.896V149.273H260.555V158ZM261.237 147.818C261.76 147.818 262.192 147.409 262.192 146.909C262.192 146.409 261.76 146 261.237 146C260.714 146 260.283 146.409 260.283 146.909C260.283 147.409 260.714 147.818 261.237 147.818ZM266.92 158.205C268.443 158.205 269.239 157.386 269.511 156.818H269.58V158H270.92V152.25C270.92 149.477 268.807 149.159 267.693 149.159C266.375 149.159 264.875 149.614 264.193 151.205L265.466 151.659C265.761 151.023 266.46 150.341 267.739 150.341C268.972 150.341 269.58 150.994 269.58 152.114V152.159C269.58 152.807 268.92 152.75 267.33 152.955C265.71 153.165 263.943 153.523 263.943 155.523C263.943 157.227 265.261 158.205 266.92 158.205ZM267.125 157C266.057 157 265.284 156.523 265.284 155.591C265.284 154.568 266.216 154.25 267.261 154.114C267.83 154.045 269.352 153.886 269.58 153.614V154.841C269.58 155.932 268.716 157 267.125 157ZM274.709 146.364H273.368V158H274.709V146.364ZM281.665 158H283.006V152.545C283.006 151.267 283.938 150.364 284.983 150.364C286 150.364 286.71 151.028 286.71 152.023V158H288.074V152.318C288.074 151.193 288.778 150.364 290.006 150.364C290.96 150.364 291.778 150.869 291.778 152.159V158H293.119V152.159C293.119 150.108 292.017 149.159 290.46 149.159C289.21 149.159 288.295 149.733 287.847 150.636H287.756C287.324 149.705 286.562 149.159 285.415 149.159C284.278 149.159 283.438 149.705 283.074 150.636H282.96V149.273H281.665V158ZM299.23 158.182C301.003 158.182 302.298 157.295 302.707 155.977L301.412 155.614C301.071 156.523 300.281 156.977 299.23 156.977C297.656 156.977 296.571 155.96 296.509 154.091H302.844V153.523C302.844 150.273 300.912 149.159 299.094 149.159C296.73 149.159 295.162 151.023 295.162 153.705C295.162 156.386 296.707 158.182 299.23 158.182ZM296.509 152.932C296.599 151.574 297.56 150.364 299.094 150.364C300.548 150.364 301.48 151.455 301.48 152.932H296.509ZM308.179 158.182C309.861 158.182 310.429 157.136 310.724 156.659H310.884V158H312.179V146.364H310.838V150.659H310.724C310.429 150.205 309.906 149.159 308.202 149.159C305.997 149.159 304.474 150.909 304.474 153.659C304.474 156.432 305.997 158.182 308.179 158.182ZM308.361 156.977C306.679 156.977 305.815 155.5 305.815 153.636C305.815 151.795 306.656 150.364 308.361 150.364C309.997 150.364 310.861 151.682 310.861 153.636C310.861 155.614 309.974 156.977 308.361 156.977ZM314.821 158H316.162V149.273H314.821V158ZM315.503 147.818C316.026 147.818 316.457 147.409 316.457 146.909C316.457 146.409 316.026 146 315.503 146C314.98 146 314.548 146.409 314.548 146.909C314.548 147.409 314.98 147.818 315.503 147.818ZM321.186 158.205C322.709 158.205 323.504 157.386 323.777 156.818H323.845V158H325.186V152.25C325.186 149.477 323.072 149.159 321.959 149.159C320.641 149.159 319.141 149.614 318.459 151.205L319.732 151.659C320.027 151.023 320.726 150.341 322.004 150.341C323.237 150.341 323.845 150.994 323.845 152.114V152.159C323.845 152.807 323.186 152.75 321.595 152.955C319.976 153.165 318.209 153.523 318.209 155.523C318.209 157.227 319.527 158.205 321.186 158.205ZM321.391 157C320.322 157 319.55 156.523 319.55 155.591C319.55 154.568 320.482 154.25 321.527 154.114C322.095 154.045 323.618 153.886 323.845 153.614V154.841C323.845 155.932 322.982 157 321.391 157Z" fill="white" fill-opacity="0.8"/>
<g clip-path="url(#clip0_101_271)">
<path d="M105.997 194.981H108.736V190.211C108.263 190.146 106.638 190 104.746 190C100.797 190 98.0919 192.484 98.0919 197.049V201.25H93.7344V206.582H98.0919V220H103.434V206.584H107.616L108.279 201.251H103.433V197.577C103.434 196.036 103.849 194.981 105.997 194.981Z" fill="#ACABBF"/>
</g>
<path d="M157.774 216.263C168.388 216.263 174.192 207.47 174.192 199.845C174.192 199.595 174.187 199.346 174.175 199.099C175.302 198.285 176.281 197.268 177.054 196.111C176.02 196.571 174.907 196.88 173.74 197.02C174.931 196.305 175.846 195.175 176.277 193.828C175.162 194.489 173.928 194.969 172.613 195.229C171.56 194.107 170.061 193.406 168.401 193.406C165.215 193.406 162.63 195.99 162.63 199.175C162.63 199.628 162.681 200.068 162.78 200.491C157.984 200.249 153.731 197.953 150.886 194.462C150.39 195.315 150.105 196.305 150.105 197.362C150.105 199.364 151.123 201.132 152.672 202.165C151.726 202.136 150.836 201.876 150.059 201.444C150.058 201.468 150.058 201.492 150.058 201.517C150.058 204.312 152.047 206.645 154.688 207.174C154.203 207.306 153.692 207.377 153.166 207.377C152.795 207.377 152.433 207.34 152.082 207.273C152.816 209.566 154.946 211.234 157.472 211.281C155.497 212.829 153.009 213.751 150.305 213.751C149.84 213.751 149.38 213.724 148.929 213.671C151.482 215.308 154.515 216.263 157.774 216.263" fill="#ACABBF"/>
<g clip-path="url(#clip1_101_271)">
<path d="M230.625 190H219.375C214.198 190 210 194.198 210 199.375V210.625C210 215.802 214.198 220 219.375 220H230.625C235.802 220 240 215.802 240 210.625V199.375C240 194.198 235.802 190 230.625 190ZM237.188 210.625C237.188 214.244 234.244 217.188 230.625 217.188H219.375C215.756 217.188 212.812 214.244 212.812 210.625V199.375C212.812 195.756 215.756 192.812 219.375 192.812H230.625C234.244 192.812 237.188 195.756 237.188 199.375V210.625Z" fill="#ACABBF"/>
<path d="M225 197.5C220.858 197.5 217.5 200.858 217.5 205C217.5 209.142 220.858 212.5 225 212.5C229.142 212.5 232.5 209.142 232.5 205C232.5 200.858 229.142 197.5 225 197.5ZM225 209.687C222.417 209.687 220.313 207.584 220.313 205C220.313 202.414 222.417 200.312 225 200.312C227.584 200.312 229.688 202.414 229.688 205C229.688 207.584 227.584 209.687 225 209.687Z" fill="#ACABBF"/>
<path d="M233.063 197.937C233.615 197.937 234.062 197.49 234.062 196.938C234.062 196.386 233.615 195.938 233.063 195.938C232.511 195.938 232.063 196.386 232.063 196.938C232.063 197.49 232.511 197.937 233.063 197.937Z" fill="#ACABBF"/>
</g>
<path d="M549.773 345C549.341 342.614 547.432 341.205 545.091 341.205C542.114 341.205 539.955 343.5 539.955 347.182C539.955 350.864 542.114 353.159 545.091 353.159C547.432 353.159 549.341 351.75 549.773 349.364H548.364C548.023 350.977 546.636 351.841 545.091 351.841C542.977 351.841 541.318 350.205 541.318 347.182C541.318 344.159 542.977 342.523 545.091 342.523C546.636 342.523 548.023 343.386 548.364 345H549.773ZM555.413 353.182C557.777 353.182 559.368 351.386 559.368 348.682C559.368 345.955 557.777 344.159 555.413 344.159C553.05 344.159 551.459 345.955 551.459 348.682C551.459 351.386 553.05 353.182 555.413 353.182ZM555.413 351.977C553.618 351.977 552.8 350.432 552.8 348.682C552.8 346.932 553.618 345.364 555.413 345.364C557.209 345.364 558.027 346.932 558.027 348.682C558.027 350.432 557.209 351.977 555.413 351.977ZM561.415 356.273H562.756V351.659H562.869C563.165 352.136 563.733 353.182 565.415 353.182C567.597 353.182 569.119 351.432 569.119 348.659C569.119 345.909 567.597 344.159 565.392 344.159C563.688 344.159 563.165 345.205 562.869 345.659H562.71V344.273H561.415V356.273ZM562.733 348.636C562.733 346.682 563.597 345.364 565.233 345.364C566.938 345.364 567.778 346.795 567.778 348.636C567.778 350.5 566.915 351.977 565.233 351.977C563.619 351.977 562.733 350.614 562.733 348.636ZM571.716 356.273C572.926 356.273 573.778 355.631 574.284 354.273L578 344.295L576.534 344.273L574.125 351.227H574.034L571.625 344.273H570.17L573.398 353.045L573.148 353.727C572.659 355.057 572.057 355.182 571.08 354.932L570.739 356.114C570.875 356.182 571.261 356.273 571.716 356.273ZM579.774 353H581.115V347.477C581.115 346.295 582.047 345.432 583.32 345.432C583.678 345.432 584.047 345.5 584.138 345.523V344.159C583.984 344.148 583.632 344.136 583.433 344.136C582.388 344.136 581.479 344.727 581.161 345.591H581.07V344.273H579.774V353ZM585.727 353H587.068V344.273H585.727V353ZM586.409 342.818C586.932 342.818 587.364 342.409 587.364 341.909C587.364 341.409 586.932 341 586.409 341C585.886 341 585.455 341.409 585.455 341.909C585.455 342.409 585.886 342.818 586.409 342.818ZM593.047 356.455C595.138 356.455 596.82 355.5 596.82 353.25V344.273H595.524V345.659H595.388C595.092 345.205 594.547 344.159 592.842 344.159C590.638 344.159 589.115 345.909 589.115 348.591C589.115 351.318 590.706 352.864 592.82 352.864C594.524 352.864 595.07 351.864 595.365 351.386H595.479V353.159C595.479 354.614 594.456 355.273 593.047 355.273C591.462 355.273 590.905 354.438 590.547 353.955L589.479 354.705C590.024 355.619 591.098 356.455 593.047 356.455ZM593.001 351.659C591.32 351.659 590.456 350.386 590.456 348.568C590.456 346.795 591.297 345.364 593.001 345.364C594.638 345.364 595.501 346.682 595.501 348.568C595.501 350.5 594.615 351.659 593.001 351.659ZM600.615 347.75C600.615 346.227 601.587 345.364 602.911 345.364C604.172 345.364 604.933 346.159 604.933 347.545V353H606.274V347.455C606.274 345.21 605.081 344.159 603.297 344.159C601.922 344.159 601.138 344.733 600.729 345.636H600.615V341.364H599.274V353H600.615V347.75ZM612.523 344.273H610.659V342.182H609.318V344.273H608V345.409H609.318V350.864C609.318 352.386 610.545 353.114 611.682 353.114C612.182 353.114 612.5 353.023 612.682 352.955L612.409 351.75C612.295 351.773 612.114 351.818 611.818 351.818C611.227 351.818 610.659 351.636 610.659 350.5V345.409H612.523V344.273Z" fill="#8F91D0"/>
<g clip-path="url(#clip2_101_271)">
<path d="M626.464 347.908C626.508 348.168 626.588 348.4 626.704 348.604C626.82 348.808 626.98 348.972 627.176 349.096C627.364 349.212 627.6 349.276 627.892 349.28C628.084 349.276 628.26 349.244 628.412 349.176C628.576 349.104 628.712 349.008 628.828 348.888C628.944 348.768 629.032 348.624 629.096 348.464C629.16 348.304 629.196 348.132 629.204 347.952H630.636C630.624 348.328 630.548 348.672 630.416 348.984C630.284 349.296 630.092 349.564 629.852 349.792C629.612 350.02 629.324 350.192 628.988 350.316C628.652 350.44 628.28 350.504 627.872 350.504C627.352 350.504 626.9 350.416 626.516 350.236C626.132 350.056 625.812 349.812 625.556 349.5C625.3 349.188 625.108 348.828 624.984 348.416C624.86 348.004 624.8 347.568 624.8 347.108V346.888C624.8 346.424 624.864 345.988 624.988 345.576C625.112 345.164 625.304 344.804 625.56 344.496C625.816 344.188 626.136 343.944 626.524 343.764C626.912 343.584 627.364 343.496 627.884 343.496C628.26 343.496 628.612 343.556 628.94 343.68C629.268 343.804 629.556 343.972 629.804 344.188C630.052 344.404 630.252 344.652 630.396 344.94C630.54 345.228 630.624 345.532 630.636 345.86H629.204C629.196 345.692 629.156 345.54 629.084 345.396C629.012 345.252 628.916 345.132 628.796 345.032C628.676 344.932 628.536 344.852 628.376 344.796C628.224 344.744 628.064 344.716 627.892 344.716C627.604 344.724 627.368 344.784 627.176 344.904C626.976 345.032 626.816 345.196 626.7 345.4C626.584 345.604 626.504 345.836 626.46 346.1C626.416 346.364 626.4 346.62 626.4 346.888V347.108C626.4 347.38 626.42 347.648 626.464 347.908Z" fill="#8F91D0"/>
<path d="M628 355C623.58 355 620 351.42 620 347C620 342.58 623.58 339 628 339C632.42 339 636 342.58 636 347C636 351.42 632.42 355 628 355ZM628 340.6C624.472 340.6 621.6 343.472 621.6 347C621.6 350.528 624.472 353.4 628 353.4C631.528 353.4 634.4 350.528 634.4 347C634.4 343.472 631.528 340.6 628 340.6Z" fill="#8F91D0"/>
</g>
<path d="M643.205 353H650.545V351.75H645.136V351.659L647.75 348.864C649.75 346.722 650.341 345.722 650.341 344.432C650.341 342.636 648.886 341.205 646.841 341.205C644.801 341.205 643.25 342.591 643.25 344.636H644.591C644.591 343.312 645.449 342.432 646.795 342.432C648.057 342.432 649.023 343.205 649.023 344.432C649.023 345.506 648.392 346.301 647.045 347.773L643.205 351.977V353ZM656.688 353.159C659.256 353.159 660.733 350.983 660.733 347.182C660.733 343.409 659.233 341.205 656.688 341.205C654.142 341.205 652.642 343.409 652.642 347.182C652.642 350.983 654.119 353.159 656.688 353.159ZM656.688 351.909C654.994 351.909 654.006 350.21 654.006 347.182C654.006 344.159 655.006 342.432 656.688 342.432C658.369 342.432 659.369 344.159 659.369 347.182C659.369 350.21 658.381 351.909 656.688 351.909ZM662.892 353H670.233V351.75H664.824V351.659L667.438 348.864C669.438 346.722 670.028 345.722 670.028 344.432C670.028 342.636 668.574 341.205 666.528 341.205C664.489 341.205 662.938 342.591 662.938 344.636H664.278C664.278 343.312 665.136 342.432 666.483 342.432C667.744 342.432 668.71 343.205 668.71 344.432C668.71 345.506 668.08 346.301 666.733 347.773L662.892 351.977V353ZM676.67 341.364H675.261L672.352 343.295V344.727L675.193 342.841H675.261V353H676.67V341.364ZM691.085 344.273H692.449C692.386 342.517 690.767 341.205 688.517 341.205C686.29 341.205 684.54 342.5 684.54 344.455C684.54 346.023 685.676 346.955 687.494 347.477L688.926 347.886C690.153 348.227 691.244 348.659 691.244 349.818C691.244 351.091 690.017 351.932 688.403 351.932C687.017 351.932 685.79 351.318 685.676 350H684.222C684.358 351.909 685.903 353.205 688.403 353.205C691.085 353.205 692.608 351.727 692.608 349.841C692.608 347.659 690.54 346.955 689.335 346.636L688.153 346.318C687.29 346.091 685.903 345.636 685.903 344.386C685.903 343.273 686.926 342.455 688.472 342.455C689.881 342.455 690.949 343.125 691.085 344.273ZM694.743 353H696.084V344.273H694.743V353ZM695.425 342.818C695.947 342.818 696.379 342.409 696.379 341.909C696.379 341.409 695.947 341 695.425 341C694.902 341 694.47 341.409 694.47 341.909C694.47 342.409 694.902 342.818 695.425 342.818ZM699.881 347.75C699.881 346.227 700.824 345.364 702.108 345.364C703.352 345.364 704.108 346.176 704.108 347.545V353H705.449V347.455C705.449 345.227 704.261 344.159 702.494 344.159C701.176 344.159 700.358 344.75 699.949 345.636H699.835V344.273H698.54V353H699.881V347.75ZM710.467 353.205C711.99 353.205 712.786 352.386 713.058 351.818H713.126V353H714.467V347.25C714.467 344.477 712.354 344.159 711.24 344.159C709.922 344.159 708.422 344.614 707.74 346.205L709.013 346.659C709.308 346.023 710.007 345.341 711.286 345.341C712.518 345.341 713.126 345.994 713.126 347.114V347.159C713.126 347.807 712.467 347.75 710.876 347.955C709.257 348.165 707.49 348.523 707.49 350.523C707.49 352.227 708.808 353.205 710.467 353.205ZM710.672 352C709.604 352 708.831 351.523 708.831 350.591C708.831 349.568 709.763 349.25 710.808 349.114C711.376 349.045 712.899 348.886 713.126 348.614V349.841C713.126 350.932 712.263 352 710.672 352ZM722.415 349.432C722.415 351.068 721.165 351.818 720.165 351.818C719.051 351.818 718.256 351 718.256 349.727V344.273H716.915V349.818C716.915 352.045 718.097 353.114 719.733 353.114C721.051 353.114 721.915 352.409 722.324 351.523H722.415V353H723.756V344.273H722.415V349.432ZM728.189 353H729.507L731.416 346.295H731.553L733.462 353H734.78L737.439 344.273H736.03L734.143 350.932H734.053L732.212 344.273H730.78L728.916 350.955H728.825L726.939 344.273H725.53L728.189 353ZM739.001 353.091C739.564 353.091 740.024 352.631 740.024 352.068C740.024 351.506 739.564 351.045 739.001 351.045C738.439 351.045 737.979 351.506 737.979 352.068C737.979 352.631 738.439 353.091 739.001 353.091ZM747.589 353L748.76 349.705H753.464L754.635 353H756.112L751.839 341.364H750.385L746.112 353H747.589ZM749.203 348.455L751.067 343.205H751.158L753.021 348.455H749.203ZM759.084 341.364H757.743V353H759.084V341.364ZM762.881 341.364H761.54V353H762.881V341.364ZM770.018 353H771.428V348.455H773.973C774.075 348.455 774.172 348.455 774.268 348.449L776.723 353H778.359L775.729 348.193C777.212 347.688 777.905 346.477 777.905 344.932C777.905 342.875 776.678 341.364 773.95 341.364H770.018V353ZM771.428 347.182V342.614H773.905C775.791 342.614 776.518 343.534 776.518 344.932C776.518 346.33 775.791 347.182 773.928 347.182H771.428ZM780.071 353H781.412V344.273H780.071V353ZM780.753 342.818C781.276 342.818 781.707 342.409 781.707 341.909C781.707 341.409 781.276 341 780.753 341C780.23 341 779.798 341.409 779.798 341.909C779.798 342.409 780.23 342.818 780.753 342.818ZM787.391 356.455C789.482 356.455 791.163 355.5 791.163 353.25V344.273H789.868V345.659H789.732C789.436 345.205 788.891 344.159 787.186 344.159C784.982 344.159 783.459 345.909 783.459 348.591C783.459 351.318 785.05 352.864 787.163 352.864C788.868 352.864 789.413 351.864 789.709 351.386H789.822V353.159C789.822 354.614 788.8 355.273 787.391 355.273C785.805 355.273 785.249 354.438 784.891 353.955L783.822 354.705C784.368 355.619 785.442 356.455 787.391 356.455ZM787.345 351.659C785.663 351.659 784.8 350.386 784.8 348.568C784.8 346.795 785.641 345.364 787.345 345.364C788.982 345.364 789.845 346.682 789.845 348.568C789.845 350.5 788.959 351.659 787.345 351.659ZM794.959 347.75C794.959 346.227 795.93 345.364 797.254 345.364C798.516 345.364 799.277 346.159 799.277 347.545V353H800.618V347.455C800.618 345.21 799.425 344.159 797.641 344.159C796.266 344.159 795.482 344.733 795.072 345.636H794.959V341.364H793.618V353H794.959V347.75ZM806.866 344.273H805.003V342.182H803.662V344.273H802.344V345.409H803.662V350.864C803.662 352.386 804.889 353.114 806.026 353.114C806.526 353.114 806.844 353.023 807.026 352.955L806.753 351.75C806.639 351.773 806.457 351.818 806.162 351.818C805.571 351.818 805.003 351.636 805.003 350.5V345.409H806.866V344.273ZM814.909 346.227C814.489 344.989 813.545 344.159 811.818 344.159C809.977 344.159 808.614 345.205 808.614 346.682C808.614 347.886 809.33 348.693 810.932 349.068L812.386 349.409C813.267 349.614 813.682 350.034 813.682 350.636C813.682 351.386 812.886 352 811.636 352C810.54 352 809.852 351.528 809.614 350.591L808.341 350.909C808.653 352.392 809.875 353.182 811.659 353.182C813.688 353.182 815.068 352.074 815.068 350.568C815.068 349.352 814.307 348.585 812.75 348.205L811.455 347.886C810.42 347.631 809.955 347.284 809.955 346.614C809.955 345.864 810.75 345.318 811.818 345.318C812.989 345.318 813.472 345.966 813.705 346.568L814.909 346.227ZM821.768 353H823.178V348.455H825.723C825.825 348.455 825.922 348.455 826.018 348.449L828.473 353H830.109L827.479 348.193C828.962 347.688 829.655 346.477 829.655 344.932C829.655 342.875 828.428 341.364 825.7 341.364H821.768V353ZM823.178 347.182V342.614H825.655C827.541 342.614 828.268 343.534 828.268 344.932C828.268 346.33 827.541 347.182 825.678 347.182H823.178ZM835.386 353.182C837.159 353.182 838.455 352.295 838.864 350.977L837.568 350.614C837.227 351.523 836.438 351.977 835.386 351.977C833.812 351.977 832.727 350.96 832.665 349.091H839V348.523C839 345.273 837.068 344.159 835.25 344.159C832.886 344.159 831.318 346.023 831.318 348.705C831.318 351.386 832.864 353.182 835.386 353.182ZM832.665 347.932C832.756 346.574 833.716 345.364 835.25 345.364C836.705 345.364 837.636 346.455 837.636 347.932H832.665ZM847.222 346.227C846.801 344.989 845.858 344.159 844.131 344.159C842.29 344.159 840.926 345.205 840.926 346.682C840.926 347.886 841.642 348.693 843.244 349.068L844.699 349.409C845.58 349.614 845.994 350.034 845.994 350.636C845.994 351.386 845.199 352 843.949 352C842.852 352 842.165 351.528 841.926 350.591L840.653 350.909C840.966 352.392 842.188 353.182 843.972 353.182C846 353.182 847.381 352.074 847.381 350.568C847.381 349.352 846.619 348.585 845.062 348.205L843.767 347.886C842.733 347.631 842.267 347.284 842.267 346.614C842.267 345.864 843.062 345.318 844.131 345.318C845.301 345.318 845.784 345.966 846.017 346.568L847.222 346.227ZM853.058 353.182C854.831 353.182 856.126 352.295 856.536 350.977L855.24 350.614C854.899 351.523 854.109 351.977 853.058 351.977C851.484 351.977 850.399 350.96 850.337 349.091H856.672V348.523C856.672 345.273 854.74 344.159 852.922 344.159C850.558 344.159 848.99 346.023 848.99 348.705C848.99 351.386 850.536 353.182 853.058 353.182ZM850.337 347.932C850.428 346.574 851.388 345.364 852.922 345.364C854.376 345.364 855.308 346.455 855.308 347.932H850.337ZM858.712 353H860.053V347.477C860.053 346.295 860.984 345.432 862.257 345.432C862.615 345.432 862.984 345.5 863.075 345.523V344.159C862.922 344.148 862.57 344.136 862.371 344.136C861.325 344.136 860.416 344.727 860.098 345.591H860.007V344.273H858.712V353ZM872.067 344.273H870.612L868.203 351.227H868.112L865.703 344.273H864.249L867.476 353H868.839L872.067 344.273ZM877.183 353.182C878.956 353.182 880.251 352.295 880.661 350.977L879.365 350.614C879.024 351.523 878.234 351.977 877.183 351.977C875.609 351.977 874.524 350.96 874.462 349.091H880.797V348.523C880.797 345.273 878.865 344.159 877.047 344.159C874.683 344.159 873.115 346.023 873.115 348.705C873.115 351.386 874.661 353.182 877.183 353.182ZM874.462 347.932C874.553 346.574 875.513 345.364 877.047 345.364C878.501 345.364 879.433 346.455 879.433 347.932H874.462ZM886.132 353.182C887.814 353.182 888.382 352.136 888.678 351.659H888.837V353H890.132V341.364H888.791V345.659H888.678C888.382 345.205 887.859 344.159 886.155 344.159C883.95 344.159 882.428 345.909 882.428 348.659C882.428 351.432 883.95 353.182 886.132 353.182ZM886.314 351.977C884.632 351.977 883.768 350.5 883.768 348.636C883.768 346.795 884.609 345.364 886.314 345.364C887.95 345.364 888.814 346.682 888.814 348.636C888.814 350.614 887.928 351.977 886.314 351.977ZM893.751 353.091C894.314 353.091 894.774 352.631 894.774 352.068C894.774 351.506 894.314 351.045 893.751 351.045C893.189 351.045 892.729 351.506 892.729 352.068C892.729 352.631 893.189 353.091 893.751 353.091Z" fill="#8F91D0"/>
<defs>
<linearGradient id="paint0_linear_101_271" x1="151.593" y1="48" x2="151.593" y2="104" gradientUnits="userSpaceOnUse">
<stop stop-color="#C7CAFE"/>
<stop offset="1" stop-color="#3D408F"/>
</linearGradient>
<clipPath id="clip0_101_271">
<rect width="30" height="30" fill="white" transform="translate(86 190)"/>
</clipPath>
<clipPath id="clip1_101_271">
<rect width="30" height="30" fill="white" transform="translate(210 190)"/>
</clipPath>
<clipPath id="clip2_101_271">
<rect width="16" height="16" fill="white" transform="matrix(1 0 0 -1 620 355)"/>
</clipPath>
</defs>
</svg>
